# xmcd
#
# Track frame offsets:
#	150
#	17905
#	31910
#	47214
#	60016
#	80482
#	93848
#	110155
#	125516
#	139497
#	153823
#	170053
#
# Disc length: 2475 seconds
#
# Revision: 1
# Processed by: cddbd v1.5.2PL0 Copyright (c) Steve Scherf et al.
# Submitted via: audiograbber 1.83.01
#
DISCID=9a09a90c
DTITLE=Lindsay Ell - The Project
DYEAR=2017
DGENRE=Country
TTITLE0=Waiting on You
TTITLE1=Champagne
TTITLE2=Castle
TTITLE3=Good
TTITLE4=Wildfire
TTITLE5=Mint
TTITLE6=White Noise
TTITLE7=Criminal
TTITLE8=Just Another Girl
TTITLE9=Space
TTITLE10=Always Kiss the Girl
TTITLE11=Worth the Wait
EXTD=
EXTT0=
EXTT1=
EXTT2=
EXTT3=
EXTT4=
EXTT5=
EXTT6=
EXTT7=
EXTT8=
EXTT9=
EXTT10=
EXTT11=
PLAYORDER=
